<?xml version="1.0" encoding="UTF-8"?>
<svg width="217px" height="247px" viewBox="0 0 217 247" version="1.1" xmlns="http://www.w3.org/2000/svg" xmlns:xlink="http://www.w3.org/1999/xlink">
    <!-- Generator: Sketch 41 (35326) - http://www.bohemiancoding.com/sketch -->
    <title>Vampiro Geek</title>
    <desc>Created with Sketch.</desc>
    <defs>
        <linearGradient x1="22.7405366%" y1="12.3758969%" x2="71.4735235%" y2="96.5524018%" id="linearGradient-1">
            <stop stop-color="#ECECED" offset="0%"></stop>
            <stop stop-color="#CDCDCD" offset="100%"></stop>
        </linearGradient>
        <path d="M38,92 C62.375,92 58.699361,83.7139486 66.8935547,73.7946615 C75.0877484,63.8753743 76,54.913875 76,46 C76,20.5949015 58.9868205,0 38,0 C17.0131795,0 0,20.5949015 0,46 C0,55.8567164 0.39622336,61.1441091 10.8466797,73.7946615 C21.297136,86.4452139 15.7823097,92 38,92 Z" id="path-2"></path>
        <path d="M20.3825567,5.7194204 C20.3825567,5.7194204 17.6265707,2.13432583 12.1037232,2.13432583 C6.58087568,2.13432583 0.382556685,5.7194204 0.382556685,5.7194204 C0.382556685,5.7194204 2.43394032,9.13432583 8.02856727,9.13432583 C13.6231942,9.13432583 20.3825567,5.7194204 20.3825567,5.7194204 Z" id="path-4"></path>
        <path d="M20.3825567,5.7194204 C20.3825567,5.7194204 17.6265707,2.13432583 12.1037232,2.13432583 C6.58087568,2.13432583 0.382556685,5.7194204 0.382556685,5.7194204 C0.382556685,5.7194204 2.43394032,9.13432583 8.02856727,9.13432583 C13.6231942,9.13432583 20.3825567,5.7194204 20.3825567,5.7194204 Z" id="path-6"></path>
        <linearGradient x1="1.35244792%" y1="3.22779655%" x2="98.8934682%" y2="97.3322602%" id="linearGradient-8">
            <stop stop-color="#F2F2F5" offset="0%"></stop>
            <stop stop-color="#F0F1F3" offset="8.42220329%"></stop>
            <stop stop-color="#DEDFE3" offset="24.3137862%"></stop>
            <stop stop-color="#D5D6DA" offset="35.8199706%"></stop>
            <stop stop-color="#C8C9CD" offset="50.0658455%"></stop>
            <stop stop-color="#B9BDC0" offset="65.4117283%"></stop>
            <stop stop-color="#B2B6B9" offset="77.3895904%"></stop>
            <stop stop-color="#AFB3B6" offset="88.28552%"></stop>
            <stop stop-color="#ABAEB1" offset="100%"></stop>
        </linearGradient>
        <path d="M6.2036,99.93085 C3.0141,99.93085 0.4181,97.33535 0.4181,94.14485 L0.4181,6.00535 C0.4181,2.81485 3.0141,0.22035 6.2036,0.22035 L149.7241,0.22035 C152.9136,0.22035 155.5091,2.81485 155.5091,6.00535 L155.5091,94.14485 C155.5091,97.33535 152.9136,99.93085 149.7241,99.93085 L6.2036,99.93085 Z" id="path-9"></path>
        <filter x="-50%" y="-50%" width="200%" height="200%" filterUnits="objectBoundingBox" id="filter-10">
            <feGaussianBlur stdDeviation="1.5" in="SourceAlpha" result="shadowBlurInner1"></feGaussianBlur>
            <feOffset dx="0" dy="-1" in="shadowBlurInner1" result="shadowOffsetInner1"></feOffset>
            <feComposite in="shadowOffsetInner1" in2="SourceAlpha" operator="arithmetic" k2="-1" k3="1" result="shadowInnerInner1"></feComposite>
            <feColorMatrix values="0 0 0 0 0   0 0 0 0 0   0 0 0 0 0  0 0 0 0.5 0" type="matrix" in="shadowInnerInner1"></feColorMatrix>
        </filter>
        <path d="M10.6940883,1.78592118 C11.6479477,1.23128114 13.1982053,1.2334594 14.1483186,1.78592118 L23.1152918,6.99994196 C24.0691511,7.554582 24.8424069,8.9078123 24.8424069,10.0127359 L24.8424069,20.4407774 C24.8424069,21.5500575 24.065405,22.9011096 23.1152918,23.4535713 L14.1483186,28.6675921 C13.1944592,29.2222322 11.6442015,29.2200539 10.6940883,28.6675921 L1.72711512,23.4535713 C0.773255777,22.8989313 1.15463195e-14,21.545701 1.08801856e-14,20.4407774 L5.55111512e-15,10.0127359 C4.88498131e-15,8.90345578 0.777001905,7.55240374 1.72711512,6.99994196 L10.6940883,1.78592118 Z" id="path-11"></path>
    </defs>
    <g id="Page-1" stroke="none" stroke-width="1" fill="none" fill-rule="evenodd">
        <g id="Vampiro-Geek">
            <g id="Vampiro" transform="translate(51.000000, 3.000000)">
                <path d="M59.8155793,84.0054128 L59.8155793,69.007683 C59.8155793,69.007683 58.6140108,69.0025751 58.0170662,69.007683 C30.7853324,69.2406966 9,74.7445268 9,81.5 C9,84.7283884 20.8222808,84.5025306 22.9795269,90.5909177 L13.0371094,130.918945 L42.3076172,169.785156 L60,186.470703 C60,186.470703 70.2424642,179.454579 78.7792969,169.785156 C87.3161295,160.115734 109.044922,130.918945 109.044922,130.918945 L96.8316008,90.6035294 C98.9769785,84.5022173 110.815579,84.730616 110.815579,81.5 C110.815579,74.7445268 89.0302469,69.2406966 61.7985131,69.007683 C61.2015685,69.0025751 60,69.007683 60,69.007683 L60,84.0054128 L59.8155793,84.0054128 Z" id="Jaqueta" fill="#000000"></path>
                <polygon id="Camisa" fill="#F1FEFF" points="29.7986509 116 91 116 116.80957 131.730469 80.3203125 173.761719 41.9755859 173.761719 0.622070312 131.730469"></polygon>
                <polygon id="Gravata-2" fill="#EDEDED" points="47.7646484 117 72.7646484 117 89.445849 171 60.1760495 177.057617 30.90625 171"></polygon>
                <polygon id="Gravata" fill="#F5F5F5" points="47.7646484 117 72.7646484 117 81.5292969 182 60.2646484 187.207031 39 182"></polygon>
                <polygon id="Manga" fill="#A00E1B" points="37.7135777 94 82.7500886 94 90.8325077 115.897888 60.2318332 126 29.6311586 115.897888"></polygon>
                <g id="Rosto-com-sombra" transform="translate(22.000000, 13.000000)">
                    <mask id="mask-3" fill="white">
                        <use xlink:href="#path-2"></use>
                    </mask>
                    <use id="Mask" fill="url(#linearGradient-1)" xlink:href="#path-2"></use>
                    <path d="M17.8553494,83.8300465 C17.8553494,83.8300465 22.7529678,88.6860754 26.3263508,89.1441698 C29.8997338,89.6022643 42.4959705,91.5028203 50.9930351,88.0285035 C59.4900997,84.5541868 57.9290211,81.7481567 64.2023496,73.8233697 C70.475678,65.8985827 76.1810536,57.731191 76.1810536,57.731191 L71.8632944,71.4204381 L68.0592428,75.1994308 L59.7298788,88.0285035 L45.1396004,93.5125917 L29.692961,92.9623852 L19.553363,90.3382814 L17.8553494,83.8300465 Z" id="Sombra-do-rosto" fill="#C0C0C0" mask="url(#mask-3)"></path>
                </g>
                <g id="Orelhas-de-vampiro" transform="translate(10.000000, 31.000000)" fill="#D3D4D5">
                    <path d="M10.7974874,35.8885814 C14.3873383,35.8885814 17.2974874,29.8444255 17.2974874,22.3885814 C17.2974874,17.4881642 11.4780598,9.75901966 11.4780598,9.75901966 L8.47025104,1.36418437 C8.47025104,1.36418437 3.16617895,14.8012185 3.16617895,22.2570626 C3.16617895,29.7129068 7.20763651,35.8885814 10.7974874,35.8885814 Z" id="Orelha-esquerda" transform="translate(10.231833, 18.626383) rotate(-8.000000) translate(-10.231833, -18.626383) "></path>
                    <path d="M90.7974874,35.8885814 C94.3873383,35.8885814 97.2974874,29.8444255 97.2974874,22.3885814 C97.2974874,17.4881642 91.4780598,9.75901966 91.4780598,9.75901966 L88.470251,1.36418437 C88.470251,1.36418437 83.166179,14.8012185 83.166179,22.2570626 C83.166179,29.7129068 87.2076365,35.8885814 90.7974874,35.8885814 Z" id="Orelha-direita" transform="translate(90.231833, 18.626383) scale(-1, 1) rotate(-8.000000) translate(-90.231833, -18.626383) "></path>
                </g>
                <path d="M18.5455845,18.2115781 C18.3159196,12.6964669 22.384668,6.83396823 27.7039523,5.31490165 C27.7039523,5.31490165 39.2532723,0.541015625 60.7239674,0.541015625 C82.1946625,0.541015625 94.1127582,5.35320766 94.1127582,5.35320766 C99.3954311,6.93957838 103.362674,12.6986151 102.975206,18.1970434 L100.311272,56 C100.311272,56 95.7393417,57.6954398 93.6314565,53.8359375 C92.648656,52.0364465 89.3351312,30.1087794 82.541735,25 C75.7483388,19.8912206 66.007011,33.2314453 60.7239674,33.2314453 C55.4409239,33.2314453 47.1394624,19.1659634 39.4675916,25 C31.7957207,30.8340366 30.2434654,50.8540624 28.4027104,53.8359375 C24.2336795,60.5894323 20.1192022,56 20.1192022,56 L18.5455845,18.2115781 Z" id="Cabelo" fill="#000000"></path>
                <g id="Sobrancelha" transform="translate(34.000000, 41.000000)" fill="#4A4A4A">
                    <path d="M0.269101084,1.75227172 C0.269101084,1.75227172 4.84713795,0.44925151 9.09576124,1.24738891 C13.3443845,2.04552631 14.504239,3.2051693 17.0562105,3.63508422 C19.6081819,4.06499914 23.2691011,3.63508422 23.2691011,3.63508422 L23.2691011,7.63508422 C23.2691011,7.63508422 20.0329158,7.95562851 17.6558198,8.15022094 C15.2787239,8.34481337 12.7238224,6.88852896 9.09576124,6.43733032 C5.46770011,5.98613168 0.269101084,7.63508422 0.269101084,7.63508422 L0.269101084,1.75227172 Z" id="Sobrancelha-esquerda" transform="translate(11.769101, 4.578321) rotate(5.000000) translate(-11.769101, -4.578321) "></path>
                    <path d="M30.2691011,1.75227172 C30.2691011,1.75227172 34.847138,0.44925151 39.0957612,1.24738891 C43.3443845,2.04552631 44.504239,3.2051693 47.0562105,3.63508422 C49.6081819,4.06499914 53.2691011,3.63508422 53.2691011,3.63508422 L53.2691011,7.63508422 C53.2691011,7.63508422 50.0329158,7.95562851 47.6558198,8.15022094 C45.2787239,8.34481337 42.7238224,6.88852896 39.0957612,6.43733032 C35.4677001,5.98613168 30.2691011,7.63508422 30.2691011,7.63508422 L30.2691011,1.75227172 Z" id="Sobrancelha-direita" transform="translate(41.769101, 4.578321) scale(-1, 1) rotate(5.000000) translate(-41.769101, -4.578321) "></path>
                </g>
                <g id="Olho-esquerdo" transform="translate(35.000000, 50.000000)">
                    <path d="M20.4296875,7.65258789 L0.515869141,5.29150391 C0.515869141,5.29150391 -1.0378763,7.96314593 2.34912109,10.3266602 C5.73611849,12.6901744 6.97429826,12.6900011 9.43115234,13.0512695 C18.342041,14.3615723 20.4296875,7.65258789 20.4296875,7.65258789 Z" id="Path-3" fill="#D0D0D0"></path>
                    <path d="M20.4360352,7.71069336 C20.4360352,7.71069336 16.9004957,3.16321269 12.9489746,1.72631836 C8.9974535,0.289424025 7.11675964,0.361448334 4.53320312,0.752197266 C1.94964661,1.1429462 0.507568359,3.59179687 0.507568359,3.59179687 L0.507568359,5.15307617 L20.4360352,7.71069336 Z" id="Path-2" fill="#4A4A4A"></path>
                    <g id="Olho" transform="translate(0.000000, 1.000000)">
                        <mask id="mask-5" fill="white">
                            <use xlink:href="#path-4"></use>
                        </mask>
                        <use id="Mask" fill="#FFFFFF" transform="translate(10.382557, 5.634326) scale(1, -1) rotate(-7.000000) translate(-10.382557, -5.634326) " xlink:href="#path-4"></use>
                        <ellipse id="Oval-4" fill="#C71F34" mask="url(#mask-5)" cx="10" cy="5.5" rx="4" ry="3.5"></ellipse>
                        <circle id="Oval-3" fill="#000000" mask="url(#mask-5)" cx="10" cy="6" r="2"></circle>
                    </g>
                </g>
                <g id="Olho-direito" transform="translate(75.500000, 57.000000) scale(-1, 1) translate(-75.500000, -57.000000) translate(65.000000, 50.000000)">
                    <path d="M20.4296875,7.65258789 L0.515869141,5.29150391 C0.515869141,5.29150391 -1.0378763,7.96314593 2.34912109,10.3266602 C5.73611849,12.6901744 6.97429826,12.6900011 9.43115234,13.0512695 C18.342041,14.3615723 20.4296875,7.65258789 20.4296875,7.65258789 Z" id="Path-3" fill="#D0D0D0"></path>
                    <path d="M20.4360352,7.71069336 C20.4360352,7.71069336 16.9004957,3.16321269 12.9489746,1.72631836 C8.9974535,0.289424025 7.11675964,0.361448334 4.53320312,0.752197266 C1.94964661,1.1429462 0.507568359,3.59179687 0.507568359,3.59179687 L0.507568359,5.15307617 L20.4360352,7.71069336 Z" id="Path-2" fill="#4A4A4A"></path>
                    <g id="Olho" transform="translate(0.000000, 1.000000)">
                        <mask id="mask-7" fill="white">
                            <use xlink:href="#path-6"></use>
                        </mask>
                        <use id="Mask" fill="#FFFFFF" transform="translate(10.382557, 5.634326) scale(1, -1) rotate(-7.000000) translate(-10.382557, -5.634326) " xlink:href="#path-6"></use>
                        <ellipse id="Oval-4" fill="#C71F34" mask="url(#mask-7)" cx="10" cy="5.5" rx="4" ry="3.5"></ellipse>
                        <circle id="Oval-3" fill="#000000" mask="url(#mask-7)" cx="10" cy="6" r="2"></circle>
                    </g>
                </g>
                <g id="Nariz" transform="translate(49.000000, 56.000000)" fill="#BCBCBC">
                    <path d="M8.66113281,0.0239257812 L7.4392395,6.75645797 L0.884277344,20.0883789 C0.884277344,20.0883789 1.43921824,20.7801161 2.27783203,21.0141602 C3.11644582,21.2482042 3.97753906,20.9516602 3.97753906,20.9516602 L8.33346323,6.95636099 L8.66113281,0.0239257812 Z" id="Path-4"></path>
                    <path d="M22.2768555,0 L21.0549622,6.73253219 L14.5,20.0644531 C14.5,20.0644531 15.0549409,20.7561903 15.8935547,20.9902344 C16.7321685,21.2242784 17.5932617,20.9277344 17.5932617,20.9277344 L21.9491859,6.93243521 L22.2768555,0 Z" id="Path-4-Copy" transform="translate(18.388428, 10.540101) scale(-1, 1) translate(-18.388428, -10.540101) "></path>
                    <ellipse id="Oval-5" transform="translate(7.000000, 23.000000) rotate(11.000000) translate(-7.000000, -23.000000) " cx="7" cy="23" rx="2" ry="1"></ellipse>
                    <ellipse id="Oval-5-Copy" transform="translate(16.004062, 23.000000) scale(-1, 1) rotate(11.000000) translate(-16.004062, -23.000000) " cx="16.0040618" cy="23" rx="2" ry="1"></ellipse>
                </g>
                <g id="Lente-esquerdo" transform="translate(30.000000, 46.000000)">
                    <path d="M0.782714844,1.46142578 C0.782714844,1.46142578 4.93634351,0.515482779 6.97558594,0.479736328 C7.9897605,0.461958579 11.3163545,0.822940581 14.5114746,1.46142578 C17.7065947,2.09991098 20.8337402,3.02978516 20.8337402,3.02978516 C20.8337402,3.02978516 26.7226953,4.1139379 27.3139648,5.8671875 C27.9052344,7.6204371 27.4594451,7.08263339 27.3139648,8.46191406 C27.1684845,9.84119473 25,17.7722168 25,17.7722168 C25,17.7722168 18.3483887,18.8320312 12.7441406,18.2590332 C7.13989258,17.6860352 2.96289063,15.8293457 2.96289063,15.8293457 C2.96289063,15.8293457 1.49933675,13.0842934 1.33300781,11.8293457 C1.16667887,10.574398 0.782714844,1.46142578 0.782714844,1.46142578 Z" id="Rectangle" fill-opacity="0.45" fill="#FFFFFF"></path>
                    <path d="M0.0463666589,2.48894603 C0.0463666589,-3.36978448 27.0817804,2.51414713 27.8276265,5.85828149 C28.5734725,9.20241584 26.7397747,15.4508416 25.3722991,17.7398438 C24.0048235,20.0288459 4.77863113,19.0510759 2.14053596,16.0046833 C-0.497559206,12.9582907 0.0463666589,8.34767654 0.0463666589,2.48894603 Z M1.54266267,3.24076542 C1.54266267,-1.9897133 25.6789762,3.26326412 26.3448426,6.24879547 C27.010709,9.23432681 25.3736449,14.8127124 24.1528084,16.856257 C22.931972,18.8998016 5.76747017,18.0268813 3.41226701,15.3071638 C1.05706385,12.5874464 1.54266267,8.47124414 1.54266267,3.24076542 Z" id="Combined-Shape" fill="#28327F"></path>
                </g>
                <g id="Lente-direito" transform="translate(77.000000, 55.500000) scale(-1, 1) translate(-77.000000, -55.500000) translate(63.000000, 46.000000)">
                    <path d="M0.782714844,1.46142578 C0.782714844,1.46142578 4.93634351,0.515482779 6.97558594,0.479736328 C7.9897605,0.461958579 11.3163545,0.822940581 14.5114746,1.46142578 C17.7065947,2.09991098 20.8337402,3.02978516 20.8337402,3.02978516 C20.8337402,3.02978516 26.7226953,4.1139379 27.3139648,5.8671875 C27.9052344,7.6204371 27.4594451,7.08263339 27.3139648,8.46191406 C27.1684845,9.84119473 25,17.7722168 25,17.7722168 C25,17.7722168 18.3483887,18.8320312 12.7441406,18.2590332 C7.13989258,17.6860352 2.96289063,15.8293457 2.96289063,15.8293457 C2.96289063,15.8293457 1.49933675,13.0842934 1.33300781,11.8293457 C1.16667887,10.574398 0.782714844,1.46142578 0.782714844,1.46142578 Z" id="Rectangle" fill-opacity="0.45" fill="#FFFFFF"></path>
                    <path d="M0.0463666589,2.48894603 C0.0463666589,-3.36978448 27.0817804,2.51414713 27.8276265,5.85828149 C28.5734725,9.20241584 26.7397747,15.4508416 25.3722991,17.7398438 C24.0048235,20.0288459 4.77863113,19.0510759 2.14053596,16.0046833 C-0.497559206,12.9582907 0.0463666589,8.34767654 0.0463666589,2.48894603 Z M1.54266267,3.24076542 C1.54266267,-1.9897133 25.6789762,3.26326412 26.3448426,6.24879547 C27.010709,9.23432681 25.3736449,14.8127124 24.1528084,16.856257 C22.931972,18.8998016 5.76747017,18.0268813 3.41226701,15.3071638 C1.05706385,12.5874464 1.54266267,8.47124414 1.54266267,3.24076542 Z" id="Combined-Shape" fill="#28327F"></path>
                </g>
                <path d="M57.5,53.8919912 C57.5,53.8919912 58.7622823,53.0793457 60.3916016,53.0793457 C62.0209208,53.0793457 63.6879883,53.8919912 63.6879883,53.8919912 L64.208252,55.5793457 C64.208252,55.5793457 61.654541,54.571674 60.3916016,54.571674 C59.1286621,54.571674 56.8305664,55.5793457 56.8305664,55.5793457 L57.5,53.8919912 Z" id="Rectangle-2" fill="#28327F"></path>
                <path d="M61,91.2158203 C70.3888407,91.2158203 79.7729492,86.0961914 79.7729492,86.0961914 C79.7729492,86.0961914 70.3888407,87.3038149 61,87.3038149 C51.6111593,87.3038149 43.8662109,86.0961914 43.8662109,86.0961914 C43.8662109,86.0961914 51.6111593,91.2158203 61,91.2158203 Z" id="Boca" fill="#A00E1B"></path>
                <g id="Dentes-de-vampiro" transform="translate(47.000000, 86.000000)" fill="#FFFFFF">
                    <polygon id="Path-5" points="0.936767578 0.593383789 1.74511719 9.40820312 4.76116943 0.93572998"></polygon>
                    <polygon id="Path-5-Copy" transform="translate(26.848969, 5.000793) scale(-1, 1) translate(-26.848969, -5.000793) " points="24.9367676 0.593383789 25.7451172 9.40820312 28.7611694 0.93572998"></polygon>
                </g>
                <g id="Gravata" transform="translate(44.000000, 105.000000)" fill="#4A4A4A">
                    <polygon id="Triangle" points="24 10.5 0 21 0 0"></polygon>
                    <polygon id="Triangle-Copy" transform="translate(22.000000, 10.500000) scale(-1, 1) translate(-22.000000, -10.500000) " points="34 10.5 10 21 10 0"></polygon>
                </g>
                <g id="Adesivo-de-ouro" transform="translate(51.000000, 123.000000)">
                    <circle id="Oval-8-Copy-3" fill="#F6A623" cx="9.5" cy="10.5" r="9.5"></circle>
                    <circle id="Oval-8" fill="#F8E81C" cx="9.5" cy="9.5" r="9.5"></circle>
                    <circle id="Oval-8-Copy" fill="#F6A623" cx="9.5" cy="9.5" r="8"></circle>
                    <circle id="Oval-8-Copy-2" fill="#F8E81C" cx="9.5" cy="9.5" r="7"></circle>
                </g>
            </g>
            <g id="Notebook-com-Adesivos" transform="translate(33.000000, 134.000000)">
                <g id="Macbook">
                    <g id="Tampa">
                        <use fill="url(#linearGradient-8)" fill-rule="evenodd" xlink:href="#path-9"></use>
                        <use fill="black" fill-opacity="1" filter="url(#filter-10)" xlink:href="#path-9"></use>
                    </g>
                    <path d="M84.28025,50.7961 C84.25175,47.8786 86.66275,46.4756 86.77125,46.4086 C85.41575,44.4251 83.30575,44.1541 82.55425,44.1226 C80.75875,43.9411 79.04975,45.1791 78.14025,45.1791 C77.22975,45.1791 75.82325,44.1496 74.33525,44.1766 C72.37675,44.2056 70.57325,45.3161 69.56375,47.0676 C67.53175,50.5976 69.04525,55.8221 71.02575,58.6851 C71.99425,60.0831 73.14825,61.6601 74.66575,61.6016 C76.12675,61.5456 76.67875,60.6586 78.44325,60.6586 C80.20775,60.6586 80.70475,61.6016 82.24875,61.5726 C83.82075,61.5456 84.81625,60.1456 85.77775,58.7416 C86.88975,57.1156 87.34775,55.5421 87.37475,55.4611 C87.34075,55.4471 84.31075,54.2851 84.28025,50.7961" id="Fill-332" fill="#FFFFFF"></path>
                    <path d="M81.37815,42.22775 C82.18365,41.25375 82.72515,39.89675 82.57665,38.54625 C81.41765,38.59325 80.01315,39.31975 79.18065,40.29425 C78.43465,41.15625 77.78115,42.53625 77.95765,43.86075 C79.25115,43.96025 80.57215,43.20225 81.37815,42.22775" id="Fill-335" fill="#FFFFFF"></path>
                </g>
                <g id="Atómo" transform="translate(37.000000, 4.000000)" fill="#4A4A4A">
                    <path d="M50.7408854,63.4609375 C71.3835628,52.0185146 84.2698993,35.4258579 79.718099,27.2141927 C75.1662986,19.0025276 54.668719,19.2086188 34.0260417,30.6510417 C24.070034,36.1697469 14.4251522,43.4537012 8.84960937,50.1360677 C3.2740665,56.8184342 1.3876834,63.832823 3.74414063,68.0839844 C8.29594094,76.2956495 30.0982081,74.9033604 50.7408854,63.4609375 Z M50.3209635,60.8776042 C70.9636409,49.4351813 81.6035156,35.6809896 76.8111979,28.1171875 C72.0188802,20.5533854 53.7859065,22.5569261 33.1432292,33.999349 C23.1872215,39.5180541 16.4134335,44.4908106 10.8378906,51.1731771 C5.26234775,57.8555436 3.20890939,63.1812307 6.29361979,67.016276 C11.5449219,73.5449219 29.6782862,72.3200271 50.3209635,60.8776042 Z" id="Combined-Shape"></path>
                    <path d="M50.7408854,63.4609375 C71.3835628,52.0185146 84.2698993,35.4258579 79.718099,27.2141927 C75.1662986,19.0025276 54.668719,19.2086188 34.0260417,30.6510417 C24.070034,36.1697469 14.4251522,43.4537012 8.84960937,50.1360677 C3.2740665,56.8184342 1.3876834,63.832823 3.74414063,68.0839844 C8.29594094,76.2956495 30.0982081,74.9033604 50.7408854,63.4609375 Z M50.3209635,60.8776042 C70.9636409,49.4351813 81.6035156,35.6809896 76.8111979,28.1171875 C72.0188802,20.5533854 53.7859065,22.5569261 33.1432292,33.999349 C23.1872215,39.5180541 16.4134335,44.4908106 10.8378906,51.1731771 C5.26234775,57.8555436 3.20890939,63.1812307 6.29361979,67.016276 C11.5449219,73.5449219 29.6782862,72.3200271 50.3209635,60.8776042 Z" id="Combined-Shape-Copy-2" transform="translate(41.691180, 47.407146) scale(-1, 1) translate(-41.691180, -47.407146) "></path>
                    <circle id="Oval-10" cx="54" cy="18" r="4"></circle>
                    <circle id="Oval-10-Copy" cx="62" cy="72" r="4"></circle>
                    <circle id="Oval-10-Copy-2" cx="8" cy="52" r="4"></circle>
                    <path d="M50.7408854,63.4609375 C71.3835628,52.0185146 84.2698993,35.4258579 79.718099,27.2141927 C75.1662986,19.0025276 54.668719,19.2086188 34.0260417,30.6510417 C24.070034,36.1697469 14.4251522,43.4537012 8.84960937,50.1360677 C3.2740665,56.8184342 1.3876834,63.832823 3.74414063,68.0839844 C8.29594094,76.2956495 30.0982081,74.9033604 50.7408854,63.4609375 Z M50.3209635,60.8776042 C70.9636409,49.4351813 81.6035156,35.6809896 76.8111979,28.1171875 C72.0188802,20.5533854 53.7859065,22.5569261 33.1432292,33.999349 C23.1872215,39.5180541 16.4134335,44.4908106 10.8378906,51.1731771 C5.26234775,57.8555436 3.20890939,63.1812307 6.29361979,67.016276 C11.5449219,73.5449219 29.6782862,72.3200271 50.3209635,60.8776042 Z" id="Combined-Shape-Copy" transform="translate(41.691180, 47.407146) rotate(298.000000) translate(-41.691180, -47.407146) "></path>
                </g>
                <g id="Adesivo-de-Java" transform="translate(18.191860, 23.900276) rotate(-23.000000) translate(-18.191860, -23.900276) translate(8.691860, 7.400276)" stroke-width="0.09375">
                    <path d="M10.66945,-5.68434189e-14 L10.70355,-5.68434189e-14 C11.0242,0.1969 11.32285,0.4268 11.6402,0.62865 C11.858,0.76835 12.08295,0.91245 12.23475,1.12805 C12.68355,1.74625 12.8579,2.53715 12.77815,3.29175 C12.71765,4.16185 12.2925,4.95605 11.7821,5.6452 C12.2419,5.4274 12.71545,5.23875 13.1978,5.07705 C13.28525,4.6013 13.3243,4.1184 13.4178,3.64375 C13.7335,4.0579 14.01675,4.49625 14.3341,4.90985 C14.7202,4.9038 15.10685,4.90655 15.4935,4.9071 C15.29275,5.16835 15.103,5.43785 14.8995,5.69745 C15.07715,5.9708 15.27075,6.23315 15.46435,6.4955 C15.09255,6.5021 14.72075,6.48835 14.34895,6.4966 C14.14765,6.49275 13.99585,6.6429 13.8336,6.7397 C13.10375,7.20225 12.3596,7.66645 11.75735,8.294 C11.57255,8.51015 11.34045,8.76645 11.3993,9.07445 C11.4939,9.339 11.6864,9.55295 11.8349,9.7878 C12.2353,10.3686 12.6038,11.03685 12.5642,11.7645 C12.54055,12.29085 12.276,12.76495 11.9559,13.16865 C12.28095,13.1219 12.60985,13.1043 12.93435,13.05535 C13.09055,13.03995 13.20605,12.92555 13.31935,12.82875 C13.5377,12.639 13.74395,12.4267 14.0052,12.29525 C14.8841,11.87285 15.97365,11.8811 16.82065,12.37995 C17.24745,12.6456 17.62255,13.0416 17.7551,13.5377 C18.00095,14.4221 17.7276,15.433 17.05,16.0578 C16.4967,16.6661 15.73275,17.02305 14.971,17.29475 C14.61955,17.41795 14.2615,17.5384 13.88805,17.56535 C13.39635,17.6 12.90575,17.65225 12.4135,17.6737 C12.5356,17.74905 12.6588,17.84585 12.8117,17.83595 C14.5288,17.8365 16.24645,17.8332 17.9641,17.8376 C17.97015,20.11625 17.9619,22.39545 17.9685,24.6741 C18.04715,24.67465 18.1258,24.67575 18.205,24.67685 C18.2028,25.069 18.20775,25.4617 18.20775,25.85385 C18.22755,26.17945 17.95475,26.4044 17.84145,26.68655 C17.622,26.68985 17.4031,26.70965 17.1897,26.76135 C17.1919,28.1809 17.19025,29.601 17.1908,31.02055 C16.7035,31.02 16.21675,31.02 15.73,31.02385 C15.54905,31.03265 15.37855,30.9672 15.21575,30.8957 C14.5552,31.1663 13.77805,31.23175 13.1065,30.9617 C12.4861,30.71915 12.0406,30.1378 11.9086,29.4921 C11.78705,29.79845 11.6578,30.1015 11.5291,30.4051 C11.42405,30.6559 11.23925,30.8858 10.9791,30.98535 C10.6183,31.13605 10.2223,31.06235 9.84445,31.0651 C9.5997,31.06565 9.3313,31.0684 9.1289,30.90945 C8.7879,30.6658 8.69935,30.2313 8.59045,29.8529 C8.44745,29.40685 8.32755,28.9531 8.1653,28.51365 C8.162,28.5362 8.1554,28.58075 8.1521,28.60275 C8.17135,28.7661 8.18345,28.9311 8.1829,29.0961 C8.1763,29.7374 8.1818,30.3787 8.1796,31.02055 L6.16055,31.02055 C5.73485,31.0112 5.3218,31.163 4.89445,31.12835 C4.40495,31.1157 3.94075,30.9199 3.5519,30.63005 C3.36875,31.3126 2.97495,31.9726 2.34905,32.33175 C1.93875,32.5677 1.5136,32.77835 1.09505,33 L1.0857,33 C0.8811,32.68265 0.67595,32.36365 0.41525,32.08865 C0.198,31.8626 0.12595,31.55075 0.05115,31.2565 C0.21835,31.0189 0.3993,30.7879 0.6347,30.61465 C0.82995,30.44415 1.1077,30.2731 1.0967,29.9794 C1.10605,27.7222 1.0945,25.46555 1.1022,23.2089 C1.1968,22.53515 1.14565,21.8537 1.15445,21.1761 C0.9493,20.9473 0.7502,20.67505 0.76285,20.35165 C0.7403,20.009 0.91905,19.69935 1.1528,19.46395 C1.1627,18.9222 1.1517,18.38045 1.1594,17.8387 C2.3969,17.82935 3.6344,17.84145 4.87245,17.8321 C4.96705,17.6748 5.071,17.52245 5.18155,17.3756 C4.7322,17.1501 4.2713,16.81405 4.16075,16.29265 C4.0722,16.0061 4.202,15.7223 4.3296,15.47095 C3.7851,15.3659 3.1867,15.23005 2.81545,14.78125 C2.53495,14.47545 2.43265,14.00025 2.62405,13.6213 C2.8303,13.19065 3.27525,12.94755 3.6971,12.7688 C4.4473,12.47895 5.23655,12.2881 6.0346,12.1913 C6.4966,12.12805 6.96245,12.16105 7.42665,12.155 C7.11975,11.836 6.8464,11.4873 6.5747,11.13805 C6.127,10.56385 5.81625,9.8637 5.77445,9.13165 C5.76125,8.3336 6.1501,7.58395 6.66435,6.99545 C7.61585,5.9301 8.87095,5.2107 9.92145,4.2548 C10.43625,3.77025 10.63425,3.04975 10.6601,2.3628 C10.68155,1.5752 10.6645,0.7876 10.66945,-5.68434189e-14 L10.66945,-5.68434189e-14 Z" id="Path" stroke="#100D0A" fill="#FFFFFF" opacity="0.74"></path>
                    <path d="M12.01035,17.4592 C12.12255,17.5098 12.2331,17.5648 12.3442,17.61925 C12.4058,17.5263 12.46795,17.4339 12.52955,17.3415 C12.35795,17.3877 12.18525,17.42895 12.01035,17.4592 Z" id="Path" stroke="#100D0A" fill="#FFFFFF" opacity="0.74"></path>
                    <path d="M11.30195,1.2782 C11.82115,1.8315 11.9537,2.65815 11.80245,3.38305 C11.61545,4.2966 11.04895,5.07485 10.42415,5.74365 C9.8505,6.36515 9.207,6.91735 8.57065,7.47285 C8.0289,7.986 7.60815,8.6955 7.645,9.4633 C7.7,10.2289 8.0828,10.9164 8.47165,11.5599 C8.6691,11.89485 8.8858,12.22155 9.03595,12.5818 C8.3798,12.0681 7.81165,11.45265 7.27485,10.81795 C6.85135,10.28445 6.4196,9.6756 6.43225,8.9628 C6.40145,8.3512 6.73915,7.79405 7.13735,7.35735 C7.4327,6.9894 7.8166,6.71275 8.17135,6.4064 C8.8044,5.88335 9.49245,5.4285 10.09855,4.87245 C10.40875,4.61505 10.67385,4.30265 10.88065,3.9567 C11.1265,3.50295 11.23265,2.9876 11.29205,2.47885 C11.30965,2.079 11.28875,1.67805 11.30195,1.2782 Z" id="Shape" stroke="#CF7623" fill="#CF7623"></path>
                    <path d="M10.9439,6.7617 C11.83985,6.19795 12.84195,5.81405 13.8666,5.5594 C12.87055,6.215 11.79365,6.79195 10.98955,7.6923 C10.6744,8.0586 10.39665,8.52555 10.4698,9.0277 C10.5259,9.45175 10.83555,9.76855 11.0539,10.1167 C11.3102,10.52755 11.5852,10.9538 11.63525,11.44825 C11.6611,11.7832 11.5291,12.1132 11.3223,12.37225 C10.9758,12.7941 10.54735,13.145 10.0793,13.4244 C10.3367,13.02455 10.5985,12.5818 10.55065,12.08625 C10.4819,11.6402 10.13925,11.3124 9.9022,10.94885 C9.44735,10.3554 9.0959,9.59915 9.25705,8.83685 C9.49465,7.94255 10.19425,7.25945 10.9439,6.7617 Z" id="Shape" stroke="#CF7623" fill="#CF7623"></path>
                    <path d="M14.0206,12.95415 C14.5981,12.6929 15.27075,12.52515 15.8873,12.7545 C16.32895,12.8843 16.7376,13.20715 16.863,13.66475 C17.0005,14.2197 16.8355,14.828 16.4648,15.25865 C16.04185,15.7674 15.4363,16.0743 14.83405,16.3196 C14.47545,16.44445 14.1174,16.5737 13.7467,16.66005 C14.289,16.2723 14.84945,15.906 15.345,15.4583 C15.6332,15.16185 15.9302,14.8302 15.9973,14.4067 C16.0655,14.1031 16.04295,13.76485 15.87135,13.49865 C15.64145,13.1989 15.29,12.97175 14.905,12.95855 C14.6102,12.9547 14.3154,12.96405 14.0206,12.95415 Z" id="Shape" stroke="#5B7896" fill="#5B7896"></path>
                    <path d="M4.3472,13.1901 C5.11995,12.9866 5.90975,12.79025 6.71385,12.804 C6.71385,12.8315 6.7144,12.88705 6.7144,12.91455 C6.3151,13.0042 5.9213,13.1153 5.5275,13.22585 C5.20355,13.33915 4.8532,13.4387 4.6134,13.7005 C4.67995,13.88805 4.8895,13.94195 5.06,13.9986 C5.8311,14.1988 6.6352,14.16195 7.425,14.16635 C9.152,14.10255 10.8757,13.9381 12.5928,13.73735 C12.90245,13.706 13.2099,13.6532 13.52065,13.6367 C13.20385,13.83415 12.90795,14.07945 12.5499,14.201 C11.9493,14.35995 11.32945,14.41495 10.71455,14.48865 C9.8945,14.5673 9.07225,14.6311 8.2489,14.6608 C7.4437,14.71855 6.6352,14.67785 5.82835,14.6916 C5.1755,14.6685 4.5177,14.62835 3.88135,14.46995 C3.6487,14.40615 3.4056,14.31705 3.24995,14.12345 C3.1537,14.0107 3.1449,13.816 3.2681,13.7192 C3.56015,13.43265 3.96605,13.31 4.3472,13.1901 Z" id="Shape" stroke="#5B7896" fill="#5B7896"></path>
                    <path d="M5.20465,15.4792 C5.3955,15.3791 5.60615,15.3274 5.8102,15.26305 C5.72495,15.4066 5.57425,15.59965 5.69415,15.76245 C5.8696,15.9104 6.1083,15.93845 6.32555,15.9808 C6.99985,16.06275 7.67855,16.11445 8.3578,16.1172 C8.5943,16.14745 8.833,16.15075 9.07005,16.1194 C10.05125,16.11445 11.03795,15.99455 11.979,15.7091 C12.2661,15.9104 12.5719,16.08365 12.86175,16.28165 C11.1133,16.7607 9.29445,16.9796 7.4833,16.9466 C6.72815,16.8905 5.93285,16.84485 5.258,16.46645 C5.0424,16.3449 4.83065,16.18815 4.741,15.9478 C4.87355,15.7729 5.01325,15.5936 5.20465,15.4792 Z" id="Shape" stroke="#5B7896" fill="#5B7896"></path>
                    <path d="M5.48075,17.98885 C5.6276,17.6748 5.99995,17.6011 6.30795,17.5428 C6.29035,17.6187 6.27825,17.69515 6.27055,17.7727 C6.41355,17.8937 6.56975,18.00645 6.75125,18.062 C7.20005,18.20445 7.6736,18.2413 8.14165,18.2578 C8.45295,18.30785 8.76425,18.238 9.0761,18.2446 C9.8351,18.18905 10.60015,18.12305 11.33385,17.91075 C11.6776,18.13075 12.04225,18.31775 12.3761,18.55315 C10.9483,19.1125 9.3929,19.29675 7.86885,19.18015 C7.1797,19.1301 6.4471,19.07125 5.85915,18.67085 C5.63475,18.5262 5.4153,18.2754 5.48075,17.98885 Z" id="Shape" stroke="#5B7896" fill="#5B7896"></path>
                    <path d="M1.8711,19.6438 C2.54265,19.2709 3.30055,19.04265 4.07,19.0179 C4.2834,19.0091 4.49515,19.05475 4.69535,19.12625 C4.16075,19.2302 3.5728,19.23625 3.10695,19.55085 C2.95845,19.64105 2.89135,19.8011 2.88915,19.9705 C3.2076,20.2268 3.6278,20.2774 4.01555,20.3588 C5.6881,20.6228 7.3854,20.63875 9.075,20.62995 C10.64415,20.59695 12.2177,20.51115 13.7676,20.24605 C14.23345,20.15695 14.7015,20.0574 15.1393,19.8704 C15.32025,19.7879 15.50615,19.6933 15.6332,19.53545 C15.72065,19.43865 15.68875,19.2973 15.7113,19.17905 C15.85375,19.31435 16.0501,19.46725 16.0028,19.6911 C15.93625,19.9584 15.66675,20.10415 15.4363,20.2147 C14.3264,20.68715 13.11695,20.82905 11.9339,21.00285 C11.0396,21.11835 10.1409,21.20745 9.24,21.2476 C8.6702,21.2432 8.0993,21.25475 7.5295,21.2421 C7.05815,21.1838 6.5813,21.2487 6.1094,21.18985 C5.731,21.1926 5.35425,21.13595 4.9753,21.1563 L4.92745,21.12605 C4.4605,21.11725 3.99685,21.0573 3.5332,21.0089 C2.92435,20.91815 2.29845,20.845 1.7336,20.5865 C1.55705,20.5139 1.4388,20.3599 1.36565,20.18885 C1.46355,19.95125 1.6478,19.7659 1.8711,19.6438 Z" id="Shape" stroke="#5B7896" fill="#5B7896"></path>
                    <path d="M15.9918,20.7801 C16.3185,20.63545 16.6474,20.4875 16.93725,20.27575 C16.9015,20.43525 16.8938,20.61235 16.786,20.7449 C16.5374,21.0837 16.13865,21.2619 15.7597,21.4137 C14.8225,21.7591 13.82755,21.9098 12.84085,22.0374 C11.9438,22.121 11.0473,22.23485 10.1453,22.23595 L10.09635,22.2695 C9.69925,22.26675 9.3016,22.2607 8.90505,22.286 C8.3556,22.23815 7.80285,22.3003 7.2545,22.24585 C6.4779,22.21175 5.6914,22.17765 4.9401,21.9615 C4.686,21.89055 4.45225,21.7657 4.23885,21.61335 C5.8003,21.8669 7.3854,21.91475 8.96445,21.89275 C9.328,21.84545 9.69595,21.88835 10.06005,21.84325 C11.066,21.79925 12.06865,21.6942 13.06415,21.54185 C14.06075,21.38015 15.0513,21.153 15.9918,20.7801 Z" id="Shape" stroke="#5B7896" fill="#5B7896"></path>
                    <path d="M1.9756,23.6599 C2.3056,23.6599 2.63615,23.66045 2.9667,23.6599 C2.96615,25.50955 2.96615,27.3592 2.9667,29.2083 C2.9898,29.87985 2.9172,30.60475 2.4904,31.15255 C2.23025,31.50895 1.826,31.70695 1.43825,31.8923 C1.28865,31.7009 1.1242,31.52215 0.9757,31.32965 C1.2452,31.1091 1.54165,30.9067 1.7424,30.61685 C1.9107,30.38475 1.97285,30.09215 1.97615,29.81055 C1.9745,27.76015 1.97615,25.7103 1.9756,23.6599 Z" id="Shape" stroke="#CF7623" fill="#CF7623"></path>
                    <path d="M5.41695,25.2824 C5.99115,25.22795 6.62475,25.2615 7.09225,25.64045 C7.3898,25.86925 7.48825,26.25865 7.48825,26.6178 C7.4888,27.8069 7.48825,28.996 7.48825,30.1851 C7.23745,30.1796 6.985,30.19995 6.7353,30.17355 C6.69515,30.0047 6.67315,29.83255 6.6473,29.66095 C6.23205,30.00305 5.72165,30.26485 5.17055,30.25 C4.7146,30.27585 4.2185,30.0982 3.9567,29.7088 C3.7378,29.3876 3.7466,28.9773 3.79335,28.6077 C3.8632,28.0654 4.32685,27.66775 4.8147,27.48515 C5.368,27.25305 5.9774,27.3669 6.55875,27.3405 C6.5241,27.0336 6.6517,26.71405 6.5153,26.42255 C6.3778,26.125 6.04505,25.97815 5.73265,25.9556 C5.1953,25.9105 4.66125,26.05625 4.1624,26.2438 C4.11565,26.0447 4.05405,25.8489 4.0216,25.6465 C4.47535,25.48865 4.9401,25.3517 5.41695,25.2824 L5.41695,25.2824 Z M4.98135,28.13965 C4.73165,28.3657 4.6453,28.73585 4.7201,29.05815 C4.79325,29.33095 5.038,29.5713 5.33225,29.56855 C5.79755,29.61365 6.21005,29.33755 6.5615,29.06585 C6.55765,28.6759 6.5604,28.28595 6.5593,27.89655 C6.22325,27.89985 5.88555,27.8806 5.55115,27.9235 C5.34435,27.9334 5.13755,27.9994 4.98135,28.13965 Z" id="Shape" stroke="#CF7623" fill="#CF7623"></path>
                    <path d="M13.0108,25.6366 C13.5267,25.49635 14.03435,25.30055 14.57335,25.2681 C14.9996,25.2516 15.4462,25.2659 15.8312,25.4727 C16.2041,25.6498 16.4736,26.0337 16.47085,26.4528 C16.46975,27.6969 16.4703,28.941 16.4703,30.18565 C16.2261,30.1851 15.98245,30.184 15.7388,30.1873 C15.7025,30.0146 15.6717,29.8408 15.6365,29.66865 C15.22455,29.99425 14.73175,30.25935 14.1922,30.24945 C13.6796,30.2863 13.11475,30.05915 12.88155,29.5779 C12.73635,29.31005 12.7941,28.9982 12.7842,28.70725 C12.77815,28.3877 12.95305,28.094 13.1758,27.8773 C13.50965,27.5693 13.95185,27.3922 14.40065,27.3438 C14.79115,27.3339 15.18165,27.3438 15.57215,27.3405 C15.5397,26.9764 15.68105,26.53805 15.39285,26.24655 C15.0535,25.8874 14.5046,25.92425 14.05635,25.98585 C13.7456,26.04085 13.4486,26.1481 13.14665,26.23555 C13.1098,26.03425 13.05975,25.83515 13.0108,25.6366 L13.0108,25.6366 Z M14.3121,27.96035 C13.79235,28.0874 13.5223,28.7683 13.78795,29.22425 C13.90235,29.42225 14.1185,29.58285 14.35555,29.5702 C14.8192,29.5977 15.23225,29.3315 15.57325,29.04605 C15.57105,28.6627 15.57325,28.27935 15.57215,27.89655 C15.15195,27.9015 14.72515,27.87015 14.3121,27.96035 Z" id="Shape" stroke="#CF7623" fill="#CF7623"></path>
                    <path d="M8.14385,25.3605 C8.48045,25.36105 8.81705,25.3605 9.15365,25.3616 C9.53535,26.4924 9.90165,27.63035 10.19315,28.78865 C10.2234,28.89645 10.25365,29.0048 10.28775,29.11205 C10.7008,28.2106 10.94225,27.24315 11.13915,26.27515 C11.1958,25.9754 11.2178,25.6597 11.2992,25.37095 C11.63525,25.3451 11.97295,25.3704 12.30955,25.35885 C11.9944,27.0171 11.52855,28.655 10.8053,30.18455 C10.41315,30.1862 10.02155,30.18455 9.62995,30.18565 C9.1388,28.5758 8.63335,26.97035 8.14385,25.3605 Z" id="Shape" stroke="#CF7623" fill="#CF7623"></path>
                    <path d="M16.6569267,25.3302599 C16.818264,25.3297049 16.9796012,25.3297049 17.1416651,25.32915 L17.1562,25.4462421 C17.1125953,25.4495718 17.0261128,25.456786 16.9832349,25.4601156 L16.9832349,25.82915 L16.8204442,25.82915 C16.8197174,25.7042887 16.8204442,25.5794275 16.8204442,25.4556761 C16.7797465,25.4551211 16.6976244,25.4545662 16.6562,25.4540113 C16.6562,25.4229347 16.6569267,25.3613365 16.6569267,25.3302599 Z" id="Shape" stroke="#CF7623" fill="#CF7623"></path>
                    <path d="M17.1285764,25.8709 C16.9957003,25.71525 17.0784564,25.49635 17.0644695,25.3132 C17.2433859,25.29065 17.2521278,25.45565 17.2964198,25.5739 C17.3214797,25.4914 17.3465397,25.40945 17.3704341,25.3275 C17.4158917,25.32805 17.5062241,25.33025 17.5516817,25.33135 L17.5516817,25.82415 L17.420554,25.8258 C17.4217196,25.7664 17.4240507,25.6476 17.4257991,25.5882 C17.3809243,25.6905 17.3308044,25.7906 17.2766049,25.88905 C17.2346441,25.77905 17.2031734,25.6674 17.1816102,25.553 C17.1682061,25.6597 17.1513051,25.76585 17.1285764,25.8709 Z" id="Shape" stroke="#CF7623" fill="#CF7623"></path>
                </g>
                <g id="Adesivo-de-C++" transform="translate(119.000000, 8.000000)">
                    <path d="M11.4350485,1.70756135 C12.3920749,1.1510797 13.9414837,1.14977851 14.900748,1.70756135 L24.5865254,7.3395448 C25.5435519,7.89602645 26.3193752,9.23554137 26.3193752,10.3466149 L26.3193752,21.6420366 C26.3193752,22.7463139 25.5457897,24.0913238 24.5865254,24.6491067 L14.900748,30.2810901 C13.9437215,30.8375718 12.3943127,30.8388729 11.4350485,30.2810901 L1.74927104,24.6491067 C0.792244539,24.092625 0.0164212735,22.7531101 0.0164212735,21.6420366 L0.0164212735,10.3466149 C0.0164212735,9.24233759 0.790006775,7.89732764 1.74927104,7.3395448 L11.4350485,1.70756135 Z" id="Polygon" fill="#FFFFFF"></path>
                    <g id="Path-6-+-Path-7-Mask" transform="translate(0.773639, 0.773639)">
                        <mask id="mask-12" fill="white">
                            <use xlink:href="#path-11"></use>
                        </mask>
                        <use id="Mask" fill="#304971" xlink:href="#path-11"></use>
                        <polygon id="Path-7" fill="#5A8CBE" mask="url(#mask-12)" points="-0.115344635 22.4792011 24.8650369 7.90977388 12.4854459 0.90847197 -0.115344635 7.90977388"></polygon>
                        <path d="M12.4212034,23.52149 C15.5015434,23.52149 18.1897325,21.8424929 19.6205258,19.3497439 C19.9079838,18.8489304 16.0488113,17.2783175 16.0488113,17.2783175 C16.0488113,17.2783175 14.7174851,19.1642667 12.9347802,19.3497439 C11.1520752,19.535221 8.31057486,17.9240273 8.31057486,15.226361 C8.31057486,12.401303 10.7935176,10.8315907 12.9347802,11.0832929 C15.0760427,11.3349951 16.0488113,13.0677941 16.0488113,13.0677941 C16.0488113,13.0677941 19.8967325,11.5810861 19.6091909,11.0832929 C18.1755651,8.60139379 15.4934279,6.93123209 12.4212034,6.93123209 C7.83993023,6.93123209 4.1260745,10.6450878 4.1260745,15.226361 C4.1260745,19.8076342 7.83993023,23.52149 12.4212034,23.52149 Z" id="Oval-11" fill="#FFFFFF" mask="url(#mask-12)"></path>
                        <polygon id="Path-6" fill="#265A8C" mask="url(#mask-12)" points="24.9407902 22.435643 12.4699164 15.1688261 24.9407902 7.89254002"></polygon>
                    </g>
                    <rect id="Rectangle-7" fill="#FFFFFF" x="19.6848138" y="14.5816619" width="0.945558739" height="2.83667622"></rect>
                    <rect id="Rectangle-7-Copy" fill="#FFFFFF" transform="translate(20.114613, 15.914040) rotate(90.000000) translate(-20.114613, -15.914040) " x="19.5988539" y="14.495702" width="1.03151862" height="2.83667622"></rect>
                    <rect id="Rectangle-7-Copy-3" fill="#FFFFFF" x="23.2091691" y="14.5816619" width="0.945558739" height="2.83667622"></rect>
                    <rect id="Rectangle-7-Copy-2" fill="#FFFFFF" transform="translate(23.638968, 15.914040) rotate(90.000000) translate(-23.638968, -15.914040) " x="23.1232092" y="14.495702" width="1.03151862" height="2.83667622"></rect>
                </g>
                <g id="Adesivo-de-CSS3" transform="translate(134.585533, 76.721377) rotate(-21.000000) translate(-134.585533, -76.721377) translate(127.085533, 66.721377)">
                    <path d="M11.0766746,0.744940618 L9.90384798,0.744940618 L11.1235154,2.06840855 L11.1235154,2.6983848 L8.61130641,2.6983848 L8.61130641,1.9608076 L9.83073634,1.9608076 L8.61130641,0.637292162 L8.61130641,0.00641330166 L11.0766746,0.00641330166 L11.0766746,0.744940618 L11.0766746,0.744940618 Z M8.11334917,0.744940618 L6.94052257,0.744940618 L8.16014252,2.06840855 L8.16014252,2.6983848 L5.64793349,2.6983848 L5.64793349,1.9608076 L6.86750594,1.9608076 L5.64793349,0.637292162 L5.64793349,0.00641330166 L8.11334917,0.00641330166 L8.11334917,0.744940618 L8.11334917,0.744940618 Z M5.17900238,0.774916865 L3.91344418,0.774916865 L3.91344418,1.92992874 L5.17900238,1.92992874 L5.17900238,2.6983848 L3.01396675,2.6983848 L3.01396675,0.00641330166 L5.17900238,0.00641330166 L5.17900238,0.774916865 L5.17900238,0.774916865 Z" id="Shape" fill="#131313"></path>
                    <polygon id="Shape" fill="#1572B6" points="1.28940618 18.3510689 0.00337292162 3.92731591 14.1340143 3.92731591 12.8467933 18.3487411 7.06004751 19.9530166"></polygon>
                    <polygon id="Shape" fill="#33A9DC" points="7.0687886 18.7267933 11.7446556 17.4304513 12.8447506 5.10669834 7.0687886 5.10669834"></polygon>
                    <polygon id="Shape" fill="#FFFFFF" points="7.06874109 10.3323515 9.4095962 10.3323515 9.57125891 8.52085511 7.06874109 8.52085511 7.06874109 6.75178147 7.07486936 6.75178147 11.5046081 6.75178147 11.4621853 7.2264133 11.0274109 12.1012827 7.06874109 12.1012827"></polygon>
                    <polygon id="Shape" fill="#EBEBEB" points="7.07933492 14.9265558 7.07159145 14.9287411 5.10142518 14.3967221 4.97543943 12.9858907 4.01814727 12.9858907 3.19971496 12.9858907 3.44750594 15.7634204 7.0711639 16.7694062 7.07933492 16.7671259"></polygon>
                    <polygon id="Shape" fill="#FFFFFF" points="9.2592399 12.0264133 9.04622328 14.3955344 7.07320665 14.928076 7.07320665 16.7685511 10.6997625 15.7634204 10.7263658 15.4646081 11.0341093 12.0264133"></polygon>
                    <polygon id="Shape" fill="#EBEBEB" points="7.07486936 6.75178147 7.07486936 7.85049881 7.07486936 8.51648456 7.07486936 8.52085511 2.80750594 8.52085511 2.80185273 8.52085511 2.7663658 8.1232304 2.68574822 7.2264133 2.64346793 6.75178147"></polygon>
                    <polygon id="Shape" fill="#EBEBEB" points="7.06874109 10.3325416 7.06874109 11.4313064 7.06874109 12.0971971 7.06874109 12.1015677 5.12916865 12.1015677 5.12351544 12.1015677 5.08807601 11.7039905 5.00741093 10.8071734 4.96513064 10.3325416"></polygon>
                </g>
                <g id="Adesivo-de-Manjaro" transform="translate(15.000000, 68.000000)" fill="#35BF5C">
                    <polygon id="Shape" points="0 0 0 7.08333333 4.2 7.08333333 4.2 4.95833333 9.1 4.95833333 9.1 0"></polygon>
                    <rect id="Rectangle-path" x="0" y="7.79166667" width="4.2" height="9.20833333"></rect>
                    <rect id="Rectangle-path" x="4.9" y="5.66666667" width="4.2" height="11.3333333"></rect>
                    <rect id="Rectangle-path" x="9.8" y="0" width="4.2" height="17"></rect>
                </g>
            </g>
        </g>
    </g>
</svg>